<svg width="150" height="65" viewBox="0 0 150 65" fill="none" xmlns="http://www.w3.org/2000/svg">
<g clip-path="url(#clip0_1_3)">
<path d="M28.105 34.7466L30.1559 40.7523C31.2656 44.0001 32.2563 46.5969 32.3854 46.5969C32.3875 46.5968 32.3895 46.596 32.3911 46.5945C32.533 46.4695 36.5473 34.8449 36.5473 34.8449H44.3276L34.9411 62.117H29.5335C29.5335 62.117 23.7616 45.4942 23.7853 45.4312L17.7602 61.9078H12.407L3.13883 34.7466L10.8812 34.7515C10.8812 34.7515 15.1224 46.7389 15.179 46.7389L15.1794 46.7384L19.4114 34.7461L28.105 34.7466ZM0.49558 32.8577L1.34741 35.3542L10.6156 62.5154L11.052 63.7948H19.0847L19.5384 62.5541L23.7219 51.114C24.0824 52.1599 24.472 53.2871 24.8616 54.4132C25.8214 57.1873 26.7826 59.9609 27.7454 62.7341L28.1863 64.004H36.2926L36.7311 62.7298L46.1176 35.458L46.9779 32.9579H35.1976L34.758 34.2307C33.9515 36.5659 33.1397 38.8992 32.3225 41.2307C32.1962 40.8686 32.071 40.5061 31.9471 40.1433L29.8964 34.1378L29.4597 32.8591H18.0713L17.6263 34.1201L15.1536 41.1271C14.3216 38.7936 13.4924 36.4591 12.666 34.1236L12.2208 32.8655L10.8827 32.8645L3.14025 32.8596L0.49558 32.8577ZM147.929 34.6409L147.911 41.7892C147.911 41.7892 140.189 41.7637 136.264 41.7637C134.958 41.7637 134.071 41.767 134.03 41.7744C133.354 41.8972 132.922 43.3319 133.114 43.9612C133.208 44.2799 133.917 45.3198 134.683 46.2754C135.447 47.2312 136.703 48.795 137.469 49.7496C139.437 52.1983 139.707 52.6816 139.889 54.0877C140.185 56.3717 139.102 58.843 137.091 60.4729C135.076 62.1076 135.164 62.1191 120.205 62.1191H119.548C110.45 62.1165 105.639 62.0415 104.938 61.8861C103.694 61.6054 101.711 59.992 96.4719 54.9795C94.5873 53.1784 92.85 51.6013 92.7608 51.6008C92.7585 51.6008 92.7575 51.6025 92.7575 51.6051L92.6955 62.1201L84.2037 62.0828L84.1512 34.9615H103.09C108.798 35.1669 112.661 40.8372 111.892 44.4532C111.718 45.2738 111.273 46.4632 110.903 47.0951C110.144 48.3924 108.211 50.0577 106.643 50.7727C106.063 51.0338 105.59 51.3381 105.59 51.4466C105.59 51.8499 107.497 53.7223 108.211 54.0198C108.821 54.2743 110.598 54.3309 118.433 54.3309L120.942 54.3314C128.818 54.3314 128.421 54.2747 129.03 52.9772C129.456 52.074 129.132 51.5338 126.135 48.1676C122.338 44.4004 122.735 42.5959 122.709 41.2632C122.655 39.6661 123.916 34.6426 130.471 34.6426L147.929 34.6409ZM97.0533 47.1706C100.689 47.1706 101.427 47.1144 102.201 46.7792C104.813 45.6468 104.952 42.3025 102.447 40.8183C101.898 40.4926 101.193 40.439 97.2523 40.4176L92.6917 40.3935C92.7296 40.4287 92.6773 46.8967 92.6773 46.8967C92.6773 46.8967 93.8196 47.1706 97.0533 47.1706ZM149.826 32.7539H130.471C126.678 32.7539 124.435 34.2463 123.222 35.4988C121.247 37.5351 120.783 40.0994 120.818 41.3083C120.82 41.409 120.819 41.5123 120.818 41.6201C120.8 43.5847 121.09 45.8088 124.759 49.4621C125.483 50.2761 126.696 51.6412 127.155 52.3195C126.153 52.4424 123.611 52.4424 120.942 52.4424H119.808L118.433 52.442C113.725 52.442 109.754 52.4283 108.941 52.2684C108.827 52.1948 108.667 52.0669 108.492 51.915C110.119 50.9165 111.763 49.3678 112.538 48.044C113.008 47.239 113.526 45.8638 113.744 44.8438C114.227 42.5735 113.431 39.8347 111.615 37.5156C109.496 34.8098 106.414 33.191 103.159 33.074L103.125 33.0726H82.2552L82.2592 34.9638L82.3118 62.0849L82.3156 63.9599L84.1959 63.9682L92.6877 64.0054L94.5769 64.0135L94.5884 62.1295L94.6249 55.8304C94.798 55.9943 94.9773 56.1651 95.1618 56.3408C100.893 61.8226 102.816 63.3417 104.52 63.7259C104.989 63.8297 105.763 64.0024 119.547 64.0061H120.204C127.667 64.0061 131.413 64.0061 133.64 63.7917C136.193 63.5457 137.014 62.9685 138.244 61.9691L138.285 61.9358C140.812 59.8865 142.146 56.7866 141.766 53.8452C141.518 51.9322 141.01 51.1376 138.946 48.5691L138.332 47.8048C137.608 46.903 136.884 46.0008 136.161 45.0981C135.692 44.5122 135.322 43.9921 135.1 43.6512C135.392 43.6505 135.772 43.6501 136.264 43.6501C140.142 43.6501 147.828 43.6753 147.905 43.6758L149.8 43.6817L149.804 41.7928L149.822 34.644L149.826 32.7539ZM94.5818 45.2146L94.5906 43.6678C94.5929 43.196 94.5953 42.7233 94.5955 42.2902L97.2421 42.3041C98.7631 42.3122 101.052 42.3249 101.498 42.4511C102.067 42.7957 102.385 43.3288 102.35 43.8807C102.331 44.1789 102.189 44.7271 101.446 45.0483C101.032 45.2279 100.372 45.2835 97.0538 45.2835C96.0007 45.2835 95.1886 45.2531 94.5818 45.2146ZM66.9447 34.5296L76.4757 61.8726L68.7094 61.9078L67.4202 57.8011L53.5345 57.69L52.3092 61.8016L44.6212 61.7212L54.0313 34.5411L66.9447 34.5296ZM60.6995 38.5383C60.6799 38.6169 59.4827 41.8925 58.2814 45.1675C57.0703 48.4698 55.8551 51.7721 55.8383 51.7975C55.8705 51.7881 60.171 51.7787 62.9274 51.7787C64.2173 51.7787 65.1687 51.781 65.1864 51.7853L65.1867 51.7865V51.7858L65.1864 51.7853C65.1382 51.6612 60.7134 38.698 60.6995 38.5383ZM68.29 32.6411L66.9433 32.6425L54.0299 32.6546L52.6824 32.656L52.2427 33.9264L42.8326 61.1065L41.9755 63.5816L44.6018 63.6087L52.2898 63.6891L53.7169 63.704L54.1235 62.3401L54.9434 59.5893L66.0269 59.6778L66.9041 62.4727L67.3216 63.8028L68.7189 63.7967L76.485 63.7616L79.1329 63.749L78.2631 61.2551L68.7322 33.912L68.29 32.6411ZM58.5622 49.8942C58.9206 48.9201 59.4034 47.6039 60.0589 45.8161L60.625 44.2723L61.1381 45.781C61.2909 46.2306 61.9625 48.2037 62.5385 49.8921C60.8258 49.8921 59.5366 49.8924 58.5622 49.8942ZM70.1572 1.89364V8.63977H56.6073V29.2723H48.529V8.6235L32.713 8.66808C30.8064 8.66808 30.5509 10.1824 30.5509 10.7627C30.5509 11.4753 31.0169 12.1874 33.5765 15.4189C35.2371 17.518 36.7628 19.6128 36.9639 20.0705C38.0615 22.5899 36.6422 26.5147 34.0567 28.1092C32.2139 29.2445 32.5288 29.2726 18.8444 29.2726H1.89243V21.6935H25.0511L25.7347 21.2194C26.196 20.8989 26.4633 20.4578 26.565 19.8537C26.7069 18.9856 26.6336 18.8724 23.7737 15.66C20.3933 11.8621 20.0361 11.1689 20.2112 8.74427C20.4099 5.97741 22.8842 1.9578 27.2084 1.9578L70.1572 1.89364ZM72.0496 0.00378418L70.1541 0.0068506L27.2054 0.0705378C24.7315 0.0705378 22.4338 1.13671 20.7375 3.07162C19.3622 4.64045 18.4595 6.71123 18.3232 8.60958C18.0931 11.7965 18.8287 12.9483 22.3579 16.913C23.3822 18.0634 24.3561 19.1576 24.6811 19.622C24.6777 19.6348 24.6734 19.6473 24.6683 19.6596C24.6648 19.6626 24.6593 19.6664 24.6518 19.6718L24.4573 19.8065H0V31.1596H18.8444C25.5913 31.1596 28.9216 31.1534 30.8835 31.0096C33.1284 30.8459 33.8447 30.4618 34.9177 29.7971L35.0516 29.7141C38.4253 27.6337 40.164 22.6786 38.6997 19.3182C38.2479 18.2903 35.3873 14.6606 35.0625 14.2501C34.1645 13.116 32.6823 11.2451 32.4476 10.7035C32.4533 10.6582 32.4644 10.6108 32.4762 10.5782C32.5153 10.5683 32.59 10.5549 32.713 10.5549L46.6366 10.5155V31.1591H58.4998V10.5266H72.0496V0.00378418ZM92.1709 2.11278L101.676 29.5266L93.9237 29.4841L92.6653 25.3775L78.8413 25.3162L77.6062 29.2721H69.7127L79.1131 2.11278H92.1709ZM81.0975 19.4784L90.5129 19.4666C90.5453 19.4666 85.9374 5.97434 85.9067 5.96491C85.8731 5.96373 80.9916 19.4784 81.0975 19.4784ZM93.5192 0.225746H77.765L77.3252 1.49737L67.9243 28.6569L67.0581 31.1593H79.0005L79.4145 29.833L80.2332 27.2098L91.2644 27.2586L92.1157 30.0356L92.5231 31.3634L93.9157 31.3712L101.668 31.4139L104.34 31.4285L103.467 28.9102L93.9623 1.49595L93.5192 0.225746ZM83.7266 17.5883C84.4308 15.5958 85.1416 13.6056 85.8589 11.6177C86.5388 13.6053 87.2159 15.5937 87.8904 17.5831L83.7266 17.5883ZM118.865 2.11278C124.997 2.11278 129.253 2.20005 130.071 2.34158C131.964 2.66992 133.674 3.67665 134.956 5.22449C136.297 6.84214 136.605 7.6163 136.78 9.83332C137.031 12.9637 135.538 15.6645 132.592 17.4166C131.734 17.9284 130.852 18.4261 130.632 18.5252C130.293 18.6783 130.339 18.825 130.944 19.5326C131.334 19.9881 132.011 20.6368 132.446 20.9736L133.241 21.5893L147.926 21.7992L148.07 29.2721H139.066C132.103 29.2721 129.874 29.2082 129.221 28.9893C128.244 28.659 125.893 26.6729 121.114 22.1393L117.703 18.9029L117.739 29.2721H108.976V2.11278H118.865ZM117.575 14.3242H122.228C126.756 14.3242 126.897 14.3098 127.543 13.8267C128.698 12.9634 129.107 12.0739 128.984 10.7082C128.859 9.29976 128.314 8.56665 126.949 7.97695C126.181 7.64177 125.44 7.58775 121.811 7.58775H117.575V14.3242ZM118.865 0.225746H107.085V31.1591H119.639L119.633 29.2657L119.612 23.3176L119.811 23.5063C125.721 29.1133 127.464 30.3875 128.615 30.776C129.497 31.0732 130.976 31.1591 139.067 31.1591H150L149.963 29.236L149.819 21.7631L149.785 19.9391L147.955 19.9129L133.903 19.7122L133.609 19.4838C133.515 19.4107 133.401 19.3145 133.28 19.2055L133.566 19.0364C137.115 16.9245 138.975 13.5151 138.668 9.68306C138.464 7.09807 138.001 5.93354 136.416 4.02198C134.858 2.14226 132.72 0.885263 130.396 0.482618C129.104 0.259241 122.617 0.225746 118.865 0.225746ZM119.467 9.47455H121.811C125.129 9.47455 125.787 9.52951 126.192 9.70595C126.961 10.0378 127.039 10.1992 127.099 10.875C127.159 11.547 127.076 11.8171 126.408 12.3164L126.355 12.3556C125.914 12.4372 124.277 12.4372 122.228 12.4372H119.467V9.47455Z" fill="#FFC500"/>
</g>
<defs>
<clipPath id="clip0_1_3">
<rect width="150" height="64.0167" fill="white"/>
</clipPath>
</defs>
</svg>
